# xmcd CD database file
#
# Track frame offsets:
#	150
#	25108
#	48470
#	69263
#	90044
#	108900
#	126555
#	149547
#	169129
#	188017
#	206269
#	225622
#	256788
#	278201
#	293483
#	321311
#	338277
#
# Disc length: 4775 seconds
#
# Revision: 0
# Processed by: cddbd v1.5.2PL0 Copyright (c) Steve Scherf et al.
# Submitted via: CDex 1.81
#
DISCID=e412a511
DTITLE=Various Artist - Salsa broso CD 1
DYEAR=2008
DGENRE=Salsa
TTITLE0=Herida - Son Tentacion
TTITLE1=Clase Social - Oscar de Leon
TTITLE2=He Sentido Amor - Josimar Y Su Yambu
TTITLE3=Si Me Tenias - Tito Nieves
TTITLE4=Buena Fortuna - Charlie Cardona
TTITLE5=Dicen - Plan Salsa
TTITLE6=Yo Tambien - Marc Anthony
TTITLE7=Tu De Que Vas - Los 4
TTITLE8=Hoy Tengo Ganas De Ti - N Samble
TTITLE9=Ague Bendita - Victor Manuelle
TTITLE10=Hasta Que Me Olvides - Lenny Fierro
TTITLE11=Chim Pum Callao - Zaperoko
TTITLE12=Sera Que No Me Amas - Michael Stuart
TTITLE13=La Gozadera - Marc Anthony Ft. Gente De La Zona
TTITLE14=La Candy - K-Llao Salsa
TTITLE15=De Que Me Vale - Gaitanes Ft. Willie Colon
TTITLE16=Bochinchosa - Hermanos Moreno
EXTD=YEAR: 2008
EXTT0=
EXTT1=
EXTT2=
EXTT3=
EXTT4=
EXTT5=
EXTT6=
EXTT7=
EXTT8=
EXTT9=
EXTT10=
EXTT11=
EXTT12=
EXTT13=
EXTT14=
EXTT15=
EXTT16=
PLAYORDER=
